<?xml version="1.0" standalone="no"?>
<!DOCTYPE svg PUBLIC "-//W3C//DTD SVG 20010904//EN"
 "http://www.w3.org/TR/2001/REC-SVG-20010904/DTD/svg10.dtd">
<svg version="1.0" xmlns="http://www.w3.org/2000/svg"
 width="48.000000pt" height="48.000000pt" viewBox="0 0 48.000000 48.000000"
 preserveAspectRatio="xMidYMid meet">

<g transform="translate(0.000000,48.000000) scale(0.100000,-0.100000)"
fill="#000000" stroke="none">
<path d="M32 398 c-14 -14 -17 -158 -2 -158 5 0 10 33 12 73 l3 72 165 0 165
0 3 -82 c2 -46 7 -83 12 -83 15 0 12 164 -2 178 -17 17 -339 17 -356 0z"/>
<path d="M270 345 c-15 -18 -10 -45 13 -59 34 -22 73 27 47 59 -16 19 -44 19
-60 0z m46 -16 c10 -17 -13 -36 -27 -22 -12 12 -4 33 11 33 5 0 12 -5 16 -11z"/>
<path d="M420 351 c0 -6 5 -11 10 -11 7 0 10 -45 8 -127 l-3 -128 -165 0
c-148 0 -165 2 -168 17 -3 16 10 18 134 20 203 4 183 23 -23 23 -193 0 -197 2
-133 75 l39 45 50 -55 c27 -30 52 -52 56 -48 4 4 2 15 -6 24 -11 14 -11 18 6
30 25 19 27 19 96 -17 84 -42 97 -31 17 14 -75 42 -88 44 -124 20 -25 -16 -26
-15 -54 15 -16 18 -34 32 -40 32 -18 0 -100 -94 -100 -115 0 -26 18 -45 42
-45 11 0 18 -7 18 -18 0 -38 18 -42 191 -42 130 0 169 3 178 14 8 9 11 57 9
147 -3 118 -5 134 -20 137 -10 2 -18 -1 -18 -7z"/>
</g>
</svg>
